# xmcd
#
# Track frame offsets: 
#        150
#        16739
#        33651
#        47173
#        59839
#        77144
#        89185
#        108633
#        124495
#        145299
#        164565
#        174938
#
# Disc length: 2899 seconds
#
# Revision: 0
# Processed by: cddbd v1.5.1PL0 Copyright (c) Steve Scherf et al.
# Submitted via: ExactAudioCopy v0.95a5
#
DISCID=b20b510c
DTITLE=Worlds Greatest Fishing Band - Papa Was A Fishin' Man
DYEAR=2003
DGENRE=Country
TTITLE0=Hooked On Hookin' Up
TTITLE1=Headin ' Down To Baja
TTITLE2=Fish Hard
TTITLE3=Sunrise Bite
TTITLE4=Doctor's Orders
TTITLE5=Wahoo Willie And Sheephead Sam
TTITLE6=Cottage By The Bay
TTITLE7=Biggest Fishing Hole In The World
TTITLE8=Bad To the Bonefish
TTITLE9=Island Blood
TTITLE10=Too Much Beer And Not Enough Bait
TTITLE11=Wahoo Willie (Reprise)
EXTD=
EXTT0=
EXTT1=
EXTT2=
EXTT3=
EXTT4=
EXTT5=
EXTT6=
EXTT7=
EXTT8=
EXTT9=
EXTT10=
EXTT11=
PLAYORDER=
